<svg id="close" version="1.1" viewBox="0 0 512 512" xml:space="preserve" xmlns="http://www.w3.org/2000/svg"><path d="M505.94 6.058c-8.077-8.077-21.172-8.077-29.249 0L6.051 476.698c-8.077 8.077-8.077 21.172 0 29.249 4.038 4.04 9.332 6.058 14.625 6.058s10.586-2.019 14.625-6.059l470.64-470.64c8.076-8.076 8.076-21.171 0-29.248z"/><path d="M505.94 476.69L35.3 6.05c-8.076-8.077-21.172-8.077-29.248 0-8.077 8.076-8.077 21.171 0 29.248l470.64 470.64c4.038 4.039 9.332 6.058 14.625 6.058s10.587-2.019 14.624-6.057c8.075-8.078 8.075-21.173-.001-29.25z"/></svg>